<svg xmlns="http://www.w3.org/2000/svg" viewBox="0 0 512 512" role="img" aria-label="Universo de Van Gogh icon">
  <defs>
    <linearGradient id="bg" x1="0" y1="0" x2="1" y2="1">
      <stop offset="0%" stop-color="#081a34"/>
      <stop offset="55%" stop-color="#143d74"/>
      <stop offset="100%" stop-color="#071225"/>
    </linearGradient>
    <radialGradient id="moon" cx="50%" cy="34%" r="32%">
      <stop offset="0%" stop-color="#fff8d9"/>
      <stop offset="50%" stop-color="#f7d26a"/>
      <stop offset="100%" stop-color="#ffcc55"/>
    </radialGradient>
  </defs>
  <rect width="512" height="512" rx="110" fill="url(#bg)"/>
  <path d="M0 360 C90 300 155 428 250 372 C330 324 398 276 512 332 L512 512 L0 512 Z" fill="#0e315f" opacity="0.88"/>
  <path d="M0 388 C102 330 159 458 258 398 C350 342 398 292 512 350" fill="none" stroke="#f7d26a" stroke-width="14" stroke-linecap="round" opacity="0.72"/>
  <circle cx="364" cy="158" r="52" fill="url(#moon)"/>
  <circle cx="364" cy="158" r="76" fill="#f7d26a" opacity="0.16"/>
  <circle cx="165" cy="130" r="10" fill="#fff7e0"/>
  <circle cx="246" cy="94" r="8" fill="#fff7e0"/>
  <circle cx="252" cy="209" r="7" fill="#fff7e0"/>
  <path d="M106 214 C126 187 144 160 148 122 C152 92 172 70 197 54" fill="none" stroke="#ffd86f" stroke-width="14" stroke-linecap="round" opacity="0.82"/>
  <path d="M203 112 C164 144 161 178 186 215 C210 251 241 263 280 257" fill="none" stroke="#8eb8ff" stroke-width="12" stroke-linecap="round" opacity="0.75"/>
  <circle cx="192" cy="118" r="26" fill="none" stroke="#fff3c7" stroke-width="10" opacity="0.94"/>
</svg>
